<?xml version="1.0" standalone="no"?>
<!DOCTYPE svg PUBLIC "-//W3C//DTD SVG 20010904//EN"
 "http://www.w3.org/TR/2001/REC-SVG-20010904/DTD/svg10.dtd">
<svg version="1.0" xmlns="http://www.w3.org/2000/svg"
 width="100.000000pt" height="100.000000pt" viewBox="0 0 100.000000 100.000000"
 preserveAspectRatio="xMidYMid meet">

<g transform="translate(0.000000,100.000000) scale(0.100000,-0.100000)"
fill="#000000" stroke="none">
<path d="M0 938 c0 -37 4 -57 10 -53 5 3 10 1 10 -4 0 -6 -4 -11 -9 -11 -4 0
-7 -15 -6 -32 1 -20 6 -32 13 -30 18 3 15 -16 -3 -21 -11 -4 -10 -4 2 -3 10 1
18 8 18 16 0 8 -5 14 -11 13 -9 -2 -9 4 0 22 6 14 17 25 25 25 11 0 10 -5 -4
-20 -10 -11 -13 -20 -7 -20 7 0 12 -7 12 -15 0 -8 3 -15 8 -15 4 0 8 18 8 40
3 70 10 86 41 84 70 -5 75 -8 28 -13 l-50 -6 -3 -56 c-3 -55 -4 -57 -35 -64
-18 -4 -35 -7 -39 -6 -4 0 -7 -143 -7 -319 1 -318 2 -326 32 -321 5 1 6 -3 2
-9 -3 -5 -1 -10 4 -10 6 0 11 -5 11 -11 0 -5 -4 -7 -10 -4 -5 3 -10 -1 -10
-10 0 -9 4 -13 10 -10 5 3 10 0 10 -7 0 -10 2 -10 9 1 7 10 9 6 8 -13 -2 -22
-4 -24 -13 -11 -6 8 -14 12 -17 8 -4 -3 -7 -1 -7 6 0 7 -4 10 -9 7 -5 -4 -7 4
-3 16 3 13 1 19 -5 15 -5 -3 -10 -26 -10 -50 l-1 -45 499 -1 c476 -1 499 0
499 17 0 29 -12 34 -33 15 -11 -10 -18 -13 -15 -8 3 6 0 16 -8 23 -8 7 -14 8
-14 3 0 -5 -9 -9 -19 -8 -11 0 -17 6 -14 14 3 9 -4 13 -21 13 -20 0 -24 -4
-20 -18 5 -14 4 -15 -5 -2 -6 8 -11 10 -11 4 0 -13 -58 -25 -65 -14 -7 11 -42
5 -61 -11 -10 -8 -15 -9 -12 -4 3 6 0 16 -8 23 -8 7 -14 8 -14 3 0 -5 -9 -9
-19 -8 -11 0 -17 6 -14 14 3 9 -4 13 -21 13 -20 0 -24 -4 -20 -17 5 -15 4 -16
-5 -3 -6 8 -11 10 -11 4 0 -14 -58 -25 -66 -13 -2 5 -10 6 -17 3 -14 -5 -40
33 -32 46 4 6 15 10 26 10 14 0 19 -7 19 -24 0 -30 18 -44 26 -21 5 12 9 13
14 5 6 -9 13 -7 27 7 19 19 63 28 63 13 0 -5 8 -7 18 -5 19 3 44 -7 43 -19 -1
-3 2 -6 7 -6 4 0 7 8 8 18 2 36 4 42 16 42 9 0 9 -3 0 -12 -7 -7 -12 -16 -12
-20 0 -13 25 -4 32 12 4 10 7 6 7 -12 1 -32 18 -46 27 -23 5 12 9 13 14 5 6
-9 13 -7 27 7 19 19 63 28 63 13 0 -5 8 -7 18 -5 19 3 44 -7 43 -19 -1 -3 2
-6 7 -6 4 0 7 11 7 26 1 14 5 28 10 32 19 14 15 32 -8 32 -17 0 -19 2 -7 9 8
6 17 8 22 5 4 -3 7 143 6 323 -1 180 -3 319 -5 307 -4 -19 -7 -20 -38 -10 -33
10 -34 13 -37 66 l-3 55 -50 6 -50 6 55 1 c51 1 123 -15 78 -17 -11 -1 -18 -9
-18 -22 0 -17 3 -19 14 -10 10 9 16 9 21 1 4 -6 -1 -18 -11 -25 -11 -9 -14
-14 -6 -15 6 0 12 -6 12 -14 0 -8 5 -18 10 -21 7 -4 9 5 5 25 -3 19 -2 29 4
26 5 -4 13 -1 17 5 4 8 3 9 -4 5 -7 -4 -12 -2 -12 3 0 6 5 11 10 11 6 0 10 30
10 70 l0 69 -350 0 c-262 0 -350 -3 -350 -12 0 -9 -2 -9 -8 0 -5 8 -50 12
-150 11 l-142 0 0 -60z m105 40 c5 4 5 1 1 -6 -6 -10 -11 -10 -22 -1 -8 6 -14
14 -14 16 0 3 6 0 13 -6 8 -6 18 -7 22 -3z m45 8 c0 -2 -7 -6 -15 -10 -8 -3
-15 -1 -15 4 0 6 7 10 15 10 8 0 15 -2 15 -4z m24 -19 c-3 -7 1 -4 9 6 8 9 22
17 33 17 17 0 17 0 -1 -13 -10 -8 -15 -19 -11 -26 5 -7 2 -10 -6 -9 -7 2 -12
-2 -11 -7 1 -6 -7 -11 -17 -11 -12 0 -16 5 -12 16 5 13 3 13 -11 1 -11 -9 -17
-10 -17 -2 0 6 5 11 11 11 5 0 7 5 4 10 -4 6 -1 9 7 8 7 -2 12 3 10 10 -1 8 2
11 8 7 6 -3 8 -12 4 -18z m487 8 c16 11 39 -9 29 -25 -8 -13 -10 -12 -10 3 0
9 -5 17 -11 17 -5 0 -7 -5 -3 -12 4 -6 3 -8 -4 -4 -5 3 -12 3 -15 -1 -2 -5 -2
-2 -1 5 2 6 -1 12 -7 12 -6 0 -7 5 -3 12 6 9 9 9 12 0 2 -7 8 -10 13 -7z m250
0 c16 11 39 -9 29 -25 -8 -13 -10 -12 -10 3 0 9 -5 17 -11 17 -5 0 -7 -5 -3
-12 4 -6 3 -8 -4 -4 -5 3 -12 3 -15 -1 -2 -5 -2 -2 -1 5 2 6 -1 12 -7 12 -6 0
-7 5 -3 12 6 9 9 9 12 0 2 -7 8 -10 13 -7z m-512 -9 c7 -8 8 -17 3 -20 -6 -3
-12 3 -15 14 -6 24 -4 25 12 6z m41 -16 c-5 -9 -7 -20 -5 -24 3 -3 2 -3 -2 0
-14 10 -10 52 4 47 9 -4 10 -10 3 -23z m-200 -4 c0 -3 -4 -8 -10 -11 -5 -3
-10 -1 -10 4 0 6 5 11 10 11 6 0 10 -2 10 -4z m304 -71 c49 4 50 4 11 -5 -56
-13 -142 -2 -150 19 -5 13 -4 14 6 4 7 -7 20 -13 29 -13 13 0 13 1 0 10 -8 5
-11 10 -6 10 5 0 18 -8 29 -17 19 -17 19 -17 13 7 -6 25 -6 25 6 2 10 -20 17
-22 62 -17z m232 23 c2 -3 -33 -8 -78 -11 -45 -4 -84 -4 -87 -2 -2 3 10 5 27
5 18 0 32 3 32 8 0 7 98 8 106 0z m-406 -9 c14 -4 -13 -5 -60 -2 -47 3 -87 8
-90 10 -8 7 123 0 150 -8z m-117 -46 c11 -10 17 -12 13 -5 -9 15 31 15 134 -1
l75 -12 3 -300 2 -300 -75 9 c-41 6 -73 11 -71 13 5 6 52 5 94 -2 40 -7 57 4
31 21 -8 5 -8 9 1 14 7 4 9 13 5 20 -6 9 -9 9 -16 -1 -6 -10 -9 -11 -9 -1 0 6
-5 12 -11 12 -5 0 -8 -4 -5 -9 3 -5 -3 -11 -15 -14 -16 -4 -19 -2 -14 14 5 15
1 19 -20 19 -14 0 -24 4 -21 8 6 10 66 14 66 4 0 -4 11 -9 25 -10 18 -1 25 3
25 16 0 14 -2 15 -10 2 -6 -10 -10 -11 -10 -2 0 7 -13 12 -29 12 -34 0 -51 18
-30 31 11 7 10 9 -3 9 -10 0 -18 -4 -18 -10 0 -5 -4 -10 -8 -10 -5 0 -9 21
-10 47 0 27 2 42 5 36 5 -14 29 -17 36 -5 2 4 2 1 1 -5 -2 -7 1 -13 7 -13 6 0
7 -5 3 -12 -6 -9 -9 -9 -12 0 -5 17 -32 15 -32 -3 0 -9 9 -15 25 -15 19 0 25
-5 23 -17 -2 -11 3 -18 14 -18 9 0 20 -3 24 -7 10 -10 24 0 24 17 0 9 -6 12
-17 8 -17 -5 -17 -5 0 8 15 12 17 26 14 89 -3 72 -4 75 -28 75 -17 0 -23 -5
-21 -17 4 -26 -16 -31 -28 -7 -9 16 -9 20 0 14 12 -7 9 32 -5 68 -4 10 -3 17
4 17 7 0 15 -10 20 -22 7 -19 8 -19 14 -3 6 14 10 15 22 5 12 -10 13 -16 4
-26 -8 -10 -8 -14 0 -14 6 0 11 3 12 8 0 4 3 18 5 32 4 24 1 25 -46 27 -28 0
-50 -3 -50 -8 0 -16 -18 -10 -24 8 -4 10 -4 15 -1 11 3 -3 22 -2 41 2 18 4 34
5 34 1 0 -4 10 -7 23 -6 20 2 22 6 22 69 0 37 -3 70 -7 73 -5 2 -8 -1 -8 -8 0
-8 -3 -9 -13 0 -8 6 -17 8 -21 4 -4 -4 3 -12 15 -18 19 -11 19 -13 5 -18 -10
-4 -15 -3 -11 3 3 6 2 10 -4 10 -5 0 -11 -3 -14 -7 -2 -5 -2 -2 0 6 2 8 -2 11
-12 7 -19 -7 -19 -1 1 18 10 10 11 16 3 16 -8 0 -8 4 -1 13 8 9 0 12 -36 11
-26 0 -55 3 -66 9 -13 6 -16 6 -12 -2 4 -6 1 -11 -8 -11 -11 0 -14 -9 -12 -36
3 -28 1 -34 -11 -30 -8 3 -19 6 -24 6 -4 0 -7 6 -5 13 1 6 1 8 -2 4 -2 -4 -9
-3 -16 2 -6 5 -18 6 -25 2 -9 -6 -10 -11 -2 -15 6 -4 11 -2 11 4 0 6 5 8 10 5
14 -9 13 -26 -2 -22 -6 1 -14 -7 -17 -18 -6 -21 -24 -26 -38 -11 -5 5 -2 6 6
1 10 -6 12 -2 6 16 -4 17 -3 20 3 10 6 -8 12 -9 16 -3 7 12 -13 21 -31 14 -19
-6 -18 -112 1 -112 8 0 16 -6 19 -13 3 -8 -1 -14 -9 -14 -7 0 -11 4 -8 9 3 4
0 8 -5 8 -6 0 -11 -7 -11 -16 0 -10 6 -14 14 -11 7 3 23 -1 34 -9 17 -12 22
-12 31 0 14 16 54 9 44 -8 -4 -6 0 -5 9 2 20 16 19 1 0 -35 -14 -26 -1 -31 18
-8 7 8 9 15 6 15 -4 0 -2 9 3 19 8 14 7 22 -3 30 -7 6 -16 9 -20 6 -3 -3 -2 0
4 7 5 6 20 13 32 15 20 2 21 2 5 -8 -9 -6 -15 -15 -12 -20 4 -5 10 -7 15 -4 5
3 12 0 16 -6 4 -7 3 -9 -4 -5 -6 3 -13 2 -17 -4 -3 -5 1 -10 9 -10 8 0 18 -5
21 -10 4 -6 1 -9 -7 -8 -8 2 -13 -6 -13 -19 0 -11 -3 -25 -7 -29 -5 -4 -8 -3
-8 3 0 5 -7 10 -15 10 -8 0 -15 -3 -15 -7 0 -3 -14 -5 -31 -5 -33 1 -50 19
-42 44 4 13 3 13 -5 2 -5 -7 -16 -18 -23 -23 -11 -8 -10 -9 4 -4 9 3 17 1 17
-4 0 -6 -4 -10 -9 -10 -13 0 -8 -25 8 -44 7 -9 10 -16 6 -16 -4 0 -13 7 -20
17 -8 11 -14 13 -19 5 -4 -7 -2 -12 3 -12 6 0 11 -5 11 -11 0 -8 -4 -8 -14 0
-17 14 -14 47 4 43 6 -1 9 2 5 8 -3 6 -10 8 -14 6 -4 -3 -8 8 -9 25 0 17 -3
33 -6 36 -3 3 -5 -53 -5 -125 1 -123 2 -129 20 -125 11 3 19 0 19 -6 0 -7 4
-10 8 -7 5 3 8 -11 8 -29 -1 -33 -3 -35 -33 -35 l-33 0 0 300 0 300 57 0 c39
0 62 -5 76 -17z m627 -283 l0 -300 -36 0 c-19 0 -33 4 -30 9 3 4 17 6 31 3 22
-4 25 -1 25 22 0 14 -4 26 -10 26 -5 0 -7 -8 -4 -18 5 -14 4 -15 -5 -2 -6 8
-11 10 -11 4 0 -13 -58 -25 -65 -14 -7 11 -42 5 -61 -11 -10 -8 -15 -9 -12 -4
3 6 0 16 -8 23 -8 7 -14 8 -14 3 0 -5 -9 -9 -19 -8 -11 0 -17 6 -14 14 3 9 -4
13 -21 13 -20 0 -24 -4 -20 -18 5 -14 4 -15 -5 -2 -6 9 -11 10 -11 3 0 -6 -12
-13 -27 -15 -20 -2 -29 -9 -31 -25 -3 -18 2 -22 30 -25 l33 -3 -38 -6 -37 -5
2 300 3 301 75 12 c90 14 143 16 136 5 -3 -5 5 -8 17 -7 12 1 25 -3 29 -8 3
-6 19 -12 35 -15 15 -2 24 0 19 5 -4 4 -12 9 -17 9 -22 3 -23 5 -9 15 12 8 7
9 -17 6 -18 -2 -33 0 -33 5 0 4 27 8 60 8 l60 0 0 -300z m-564 237 c1 -9 -3
-20 -8 -24 -7 -4 -8 -1 -3 7 6 10 4 12 -10 6 -14 -5 -16 -4 -7 7 7 8 8 17 4
22 -4 4 -1 6 7 3 8 -2 15 -12 17 -21z m44 2 c0 -5 -4 -7 -10 -4 -5 3 -10 1
-10 -5 0 -6 -5 -8 -10 -5 -6 4 -8 11 -5 16 8 12 35 11 35 -2z m-278 -316 l3
-258 77 -5 c68 -4 74 -6 53 -17 -14 -6 -27 -7 -31 -2 -3 5 -27 9 -54 9 -63 0
-64 3 -61 197 1 83 -2 154 -6 156 -5 3 -9 -80 -9 -184 l-1 -190 33 3 c18 1 36
-1 41 -5 4 -5 -12 -7 -37 -5 l-45 3 -3 265 c-1 146 0 270 3 277 2 7 11 13 20
13 13 0 15 -35 17 -257z m873 -23 l0 -275 -50 -1 -50 -1 48 4 c34 3 47 8 47
20 0 11 -6 14 -22 9 -23 -7 -143 -11 -163 -5 -5 1 26 5 70 8 l80 6 3 258 c2
239 4 258 20 255 16 -3 17 -25 17 -278z m-549 245 c-30 -32 -56 -33 -55 -2 1
16 2 18 6 5 5 -21 33 -24 33 -4 0 13 13 23 32 25 4 1 -3 -10 -16 -24z m-171
-62 c-11 -3 -23 -10 -27 -17 -6 -8 -8 -8 -8 1 0 6 -8 14 -17 16 -10 3 2 5 27
5 25 0 36 -3 25 -5z m115 -94 c0 -5 5 -7 11 -3 8 4 8 0 0 -15 -7 -11 -14 -21
-17 -21 -3 0 -2 5 1 10 3 6 2 10 -3 10 -5 0 -9 7 -9 15 0 8 4 15 9 15 4 0 8
-5 8 -11z m100 -20 c0 -6 -4 -7 -10 -4 -5 3 -10 11 -10 16 0 6 5 7 10 4 6 -3
10 -11 10 -16z m-253 -21 c-3 -8 -6 -5 -6 6 -1 11 2 17 5 13 3 -3 4 -12 1 -19z
m33 2 c0 -5 -5 -10 -11 -10 -5 0 -7 5 -4 10 3 6 8 10 11 10 2 0 4 -4 4 -10z
m177 -25 c0 -8 -4 -15 -9 -15 -10 0 -11 14 -1 23 9 10 10 9 10 -8z m33 0 c10
-12 10 -15 -2 -15 -8 0 -15 7 -15 15 0 8 1 15 2 15 2 0 8 -7 15 -15z m-230
-29 c0 -11 -19 -15 -25 -6 -3 5 1 10 9 10 9 0 16 -2 16 -4z m-43 -32 c-3 -3
-12 -4 -19 -1 -8 3 -5 6 6 6 11 1 17 -2 13 -5z m118 -28 c9 4 13 -1 12 -15 -1
-14 -5 -17 -13 -11 -6 6 -15 6 -19 2 -5 -4 -5 -1 -1 6 4 6 2 12 -4 12 -6 0 -8
5 -4 12 6 9 9 9 11 1 3 -7 11 -9 18 -7z m-113 -5 c-8 -4 -13 -11 -13 -15 3
-18 0 -26 -8 -26 -5 0 -8 8 -6 18 2 9 4 20 4 25 1 4 9 7 19 7 13 0 14 -2 4 -9z
m36 -16 c-3 -3 -9 2 -12 12 -6 14 -5 15 5 6 7 -7 10 -15 7 -18z m-18 -15 c0
-5 -5 -10 -11 -10 -5 0 -7 5 -4 10 3 6 8 10 11 10 2 0 4 -4 4 -10z m60 -10 c0
-5 -8 -7 -17 -5 -10 2 -22 4 -28 4 -5 1 -4 5 4 10 15 10 41 4 41 -9z m-23 -38
c1 -12 -5 -18 -17 -19 -23 -2 -24 1 -9 29 12 21 21 18 26 -10z m36 0 c-5 -22
-23 -31 -23 -12 0 17 5 25 13 23 4 -2 7 2 7 9 0 6 2 9 5 7 2 -3 2 -15 -2 -27z
m51 -7 c4 -11 -1 -14 -19 -13 -18 2 -21 5 -13 15 14 17 25 16 32 -2z m41 -5
c3 -5 2 -10 -4 -10 -5 0 -13 5 -16 10 -3 6 -2 10 4 10 5 0 13 -4 16 -10z m-75
-35 c11 -13 7 -15 -26 -14 -31 2 -33 3 -11 6 15 2 25 9 22 14 -10 14 1 10 15
-6z m150 11 c0 -2 -7 -7 -16 -10 -8 -3 -12 -2 -9 4 6 10 25 14 25 6z m240 -32
c0 -2 -17 -4 -37 -4 -24 0 -33 3 -25 9 12 7 62 4 62 -5z m98 9 c-10 -2 -28 -2
-40 0 -13 2 -5 4 17 4 22 1 32 -1 23 -4z m-408 -50 l55 -6 -30 -14 c-30 -14
-30 -14 -2 -8 15 3 27 1 27 -5 0 -5 12 -10 27 -10 14 0 24 -2 21 -5 -2 -3 -33
-2 -67 1 -38 4 -57 10 -49 15 19 12 -1 27 -42 32 -19 2 -26 4 -15 5 11 1 45
-1 75 -5z m340 0 c-19 -3 -39 -9 -44 -14 -13 -12 -53 -12 -61 0 -5 10 41 18
105 18 l35 0 -35 -4z m-395 -23 c4 -6 -12 -9 -42 -9 l-48 2 40 7 c22 4 41 8
42 9 1 0 5 -3 8 -9z m270 2 c-7 -8 -155 -9 -155 -2 0 4 36 6 80 6 44 0 78 -2
75 -4z m205 -2 c0 -5 -21 -9 -47 -8 l-48 1 45 7 c25 4 46 8 48 8 1 1 2 -2 2
-8z m-195 -27 c-49 -7 -97 -12 -105 -10 -8 2 13 7 48 11 34 4 62 11 62 15 0 3
19 5 43 2 37 -4 31 -6 -48 -18z m-550 -11 c-3 -3 -11 0 -18 7 -9 10 -8 11 6 5
10 -3 15 -9 12 -12z m187 -10 c-6 -5 -37 -7 -69 -5 -44 2 -59 -1 -70 -15 -12
-16 -13 -16 -6 2 5 15 3 18 -10 13 -9 -3 -17 -2 -17 3 0 6 39 10 93 10 50 0
86 -4 79 -8z m732 -1 c3 -4 -6 -6 -21 -3 -17 3 -24 1 -19 -6 3 -6 1 -14 -5
-18 -8 -5 -9 -3 -4 6 6 10 4 12 -8 7 -10 -3 -17 -3 -17 2 0 4 -26 9 -57 10
-94 4 -74 11 30 11 53 0 98 -4 101 -9z m-623 -10 c-13 -8 -70 -5 -80 5 -2 2
18 4 45 4 32 0 44 -3 35 -9z m391 2 c-18 -2 -30 -9 -27 -14 4 -5 1 -9 -4 -9
-6 0 -11 5 -11 11 0 5 -5 7 -11 4 -6 -4 -41 -9 -77 -10 -64 -3 -65 -3 -22 6
25 5 55 8 68 6 12 -2 22 0 22 4 0 5 21 8 48 7 36 -1 40 -2 14 -5z m-578 -28
c-18 -13 -18 -14 4 -8 13 3 22 1 22 -6 0 -7 4 -9 10 -6 6 4 7 -6 3 -27 -7 -38
-13 -49 -13 -25 0 22 -16 22 -29 0 -8 -14 -10 -15 -11 -3 0 13 -1 13 -10 0
-11 -17 -13 -9 -4 15 5 13 8 14 15 3 6 -9 9 -6 9 11 0 19 -4 22 -21 18 -16 -4
-18 -3 -8 9 11 13 6 18 -14 15 -5 -1 -6 3 -3 8 3 5 15 7 25 4 10 -3 22 0 26 7
4 6 10 9 13 6 3 -4 -3 -13 -14 -21z m46 15 c0 -5 -5 -10 -11 -10 -5 0 -7 5 -4
10 3 6 8 10 11 10 2 0 4 -4 4 -10z m60 -10 c0 -5 -8 -7 -17 -5 -10 2 -22 4
-28 4 -5 1 -4 5 4 10 15 10 41 4 41 -9z m182 12 c30 -6 36 -10 28 -22 -6 -10
-10 -11 -10 -2 0 6 -12 12 -27 13 -16 1 -39 5 -53 9 l-25 8 25 0 c14 1 42 -2
62 -6z m408 -2 c8 -5 11 -10 5 -10 -5 0 -17 5 -25 10 -8 5 -10 10 -5 10 6 0
17 -5 25 -10z m105 0 c3 -5 1 -10 -4 -10 -6 0 -11 5 -11 10 0 6 2 10 4 10 3 0
8 -4 11 -10z m-718 -48 c1 -12 -5 -18 -17 -19 -23 -2 -24 1 -9 29 12 21 21 18
26 -10z m36 0 c-5 -22 -23 -31 -23 -12 0 17 5 25 13 23 4 -2 7 2 7 9 0 6 2 9
5 7 2 -3 2 -15 -2 -27z m157 18 c0 -6 3 -9 8 -7 12 7 52 -11 52 -24 0 -8 -4
-8 -15 1 -12 10 -15 10 -16 -1 0 -10 -2 -11 -6 -1 -2 6 -9 12 -14 12 -6 0 -8
-4 -5 -9 3 -5 -3 -11 -15 -14 -16 -4 -19 -2 -14 14 5 15 1 19 -20 19 -14 0
-24 4 -21 8 7 12 66 14 66 2z m-327 -20 c3 -11 1 -18 -4 -14 -5 3 -9 12 -9 20
0 20 7 17 13 -6z m221 -5 c4 -11 -1 -14 -19 -13 -18 2 -21 5 -13 15 14 17 25
16 32 -2z m41 -5 c3 -5 2 -10 -4 -10 -5 0 -13 5 -16 10 -3 6 -2 10 4 10 5 0
13 -4 16 -10z m75 -24 c0 -2 -7 -7 -16 -10 -8 -3 -12 -2 -9 4 6 10 25 14 25 6z
m40 -6 c0 -5 -2 -10 -4 -10 -3 0 -8 5 -11 10 -3 6 -1 10 4 10 6 0 11 -4 11
-10z"/>
<path d="M236 831 c4 -15 2 -21 -4 -17 -6 3 -13 2 -16 -3 -4 -5 1 -8 9 -7 23
3 28 13 15 33 -10 16 -10 15 -4 -6z"/>
<path d="M132 793 c-1 -15 1 -22 5 -17 5 5 12 11 16 15 4 3 2 11 -5 17 -11 9
-14 5 -16 -15z"/>
<path d="M240 780 c0 -5 5 -10 11 -10 5 0 7 5 4 10 -3 6 -8 10 -11 10 -2 0 -4
-4 -4 -10z"/>
<path d="M227 553 c3 -7 6 -13 8 -13 2 0 5 6 8 13 3 8 -1 14 -8 14 -7 0 -11
-6 -8 -14z"/>
<path d="M286 552 c-3 -5 1 -9 9 -9 8 0 12 4 9 9 -3 4 -7 8 -9 8 -2 0 -6 -4
-9 -8z"/>
<path d="M134 295 c1 -21 36 -35 36 -15 0 7 -6 10 -14 7 -9 -4 -16 1 -19 11
-3 12 -4 11 -3 -3z"/>
<path d="M830 840 c0 -13 12 -19 26 -13 21 8 17 22 -6 20 -11 -1 -20 -4 -20
-7z"/>
<path d="M696 831 c-4 -5 -1 -11 6 -13 9 -3 10 -11 3 -26 l-10 -22 -27 25
c-28 26 -90 37 -106 20 -4 -4 3 -5 15 -2 13 3 26 1 29 -4 3 -5 2 -9 -3 -8 -22
4 -44 -2 -38 -10 3 -5 0 -13 -6 -17 -8 -4 -9 -3 -5 4 4 7 2 12 -4 12 -7 0 -9
7 -6 16 3 8 2 13 -3 10 -5 -3 -9 -51 -10 -107 -2 -99 -1 -101 20 -96 24 7 49
-1 49 -15 0 -5 -5 -6 -12 -2 -7 4 -1 -8 12 -27 15 -21 18 -29 7 -20 -15 12
-17 11 -17 -5 0 -16 -2 -16 -10 -4 -6 9 -5 17 3 22 7 4 10 8 7 9 -3 0 -14 2
-25 4 -11 2 -23 -1 -27 -8 -13 -20 -9 -152 4 -165 9 -9 9 -12 0 -12 -7 0 -12
-7 -12 -15 0 -8 6 -15 13 -15 8 0 9 -2 1 -8 -7 -4 -12 -20 -12 -36 0 -27 2
-28 13 -12 9 12 14 13 17 5 3 -9 10 -7 24 7 24 24 60 28 68 7 5 -11 10 -12 19
-5 12 10 40 2 38 -12 -1 -3 2 -6 7 -6 4 0 7 8 8 18 2 36 4 42 16 42 9 0 9 -3
0 -12 -7 -7 -12 -16 -12 -20 0 -13 25 -4 32 12 4 10 7 6 7 -12 1 -32 18 -46
27 -23 5 12 9 13 14 5 5 -8 16 -3 36 15 25 23 27 28 15 48 -10 15 -10 22 -2
25 6 2 11 11 11 19 0 10 -6 13 -17 9 -17 -6 -17 -5 0 8 22 17 24 98 2 116 -12
10 -15 9 -15 -6 0 -16 -2 -16 -10 -4 -6 9 -5 17 3 22 7 4 10 8 7 9 -3 0 -15 2
-27 5 -13 2 -23 -1 -23 -7 0 -5 -4 -7 -10 -4 -6 4 -9 -3 -7 -16 1 -18 -3 -23
-22 -23 -14 0 -26 5 -28 11 -3 7 5 10 19 7 13 -2 16 -1 8 2 -21 10 -28 23 -23
45 5 19 43 27 43 9 0 -5 -8 -7 -17 -4 -15 5 -15 4 -3 -4 16 -11 70 -5 70 8 0
5 -10 6 -22 4 l-23 -5 23 10 c24 11 52 5 52 -11 0 -5 -5 -6 -11 -2 -6 3 -3 -6
7 -22 l19 -28 3 28 c6 47 -14 73 -51 68 -18 -3 -29 -2 -26 2 3 4 23 7 43 8 24
1 36 6 36 16 0 9 -6 12 -17 8 -17 -6 -17 -5 -1 7 13 10 17 29 17 75 0 34 -2
62 -4 62 -10 0 -56 -29 -56 -36 -1 -5 -3 -11 -6 -14 -4 -3 -2 1 2 9 6 11 4 13
-9 8 -10 -4 -19 -7 -22 -7 -2 0 -1 -8 2 -17 5 -14 4 -15 -4 -4 -8 11 -11 11
-15 0 -5 -11 -6 -11 -6 1 3 34 -4 43 -11 15 l-8 -30 -2 28 c-1 15 -4 32 -5 37
-1 6 -3 15 -4 20 -1 13 -18 13 -25 1z m-28 -53 c-2 -6 8 -15 22 -19 l25 -7
-26 -1 c-25 -1 -45 20 -32 33 10 9 13 7 11 -6z m-91 -60 c-3 -8 -6 -5 -6 6 -1
11 2 17 5 13 3 -3 4 -12 1 -19z m100 0 c-3 -8 -6 -5 -6 6 -1 11 2 17 5 13 3
-3 4 -12 1 -19z m150 0 c-3 -8 -6 -5 -6 6 -1 11 2 17 5 13 3 -3 4 -12 1 -19z
m-177 -32 c0 -2 -13 -6 -29 -8 -17 -2 -28 -1 -25 4 5 8 54 12 54 4z m1 -46 c0
-10 2 -11 6 -2 7 17 50 15 50 -3 0 -11 -4 -12 -13 -4 -9 7 -20 5 -40 -8 -26
-17 -28 -17 -21 0 3 9 2 17 -3 17 -6 0 -10 -6 -10 -12 -1 -9 -4 -8 -13 2 -7 8
-25 14 -42 13 l-30 -2 29 7 c50 12 86 8 87 -8z m99 4 c0 -2 -7 -4 -15 -4 -8 0
-15 4 -15 10 0 5 7 7 15 4 8 -4 15 -8 15 -10z m-47 -36 c10 2 17 -3 17 -12 0
-9 -8 -16 -17 -16 -11 0 -14 -3 -8 -8 6 -4 10 -13 9 -19 -1 -7 -2 -18 -3 -24
-1 -13 -21 -2 -21 12 0 6 5 7 12 3 7 -5 8 -3 3 6 -6 10 -11 10 -20 -4 -12 -15
-13 -15 -19 0 -8 21 -8 59 0 67 4 4 12 3 18 -1 6 -3 19 -5 29 -4z m-139 -79
c-9 -15 -24 10 -17 29 5 12 7 12 15 -2 5 -9 6 -21 2 -27z m250 0 c-9 -15 -24
10 -17 29 5 12 7 12 15 -2 5 -9 6 -21 2 -27z m-204 -49 c0 -5 -5 -10 -11 -10
-5 0 -7 5 -4 10 3 6 8 10 11 10 2 0 4 -4 4 -10z m44 -20 c-6 -6 -10 -2 -11 12
-2 16 1 18 10 9 7 -7 8 -14 1 -21z m41 20 c3 -5 -1 -10 -10 -10 -9 0 -13 5
-10 10 3 6 8 10 10 10 2 0 7 -4 10 -10z m165 0 c0 -5 -5 -10 -11 -10 -5 0 -7
5 -4 10 3 6 8 10 11 10 2 0 4 -4 4 -10z m-210 -44 c0 -2 -13 -6 -29 -8 -17 -2
-28 -1 -25 4 5 8 54 12 54 4z m24 -48 c-5 -7 -9 -16 -9 -20 0 -3 -4 -10 -9
-15 -6 -5 -6 -2 -1 6 6 11 4 13 -9 8 -14 -5 -17 -3 -12 8 3 8 1 15 -4 15 -6 0
-10 -5 -10 -11 0 -5 -4 -7 -10 -4 -18 11 -10 25 14 25 13 0 26 -6 29 -12 3 -9
7 -7 12 5 4 10 10 16 12 13 3 -3 1 -11 -3 -18z m111 2 c-10 -4 -30 -4 -44 -1
-24 5 -24 6 9 11 40 7 63 0 35 -10z m-78 -5 c0 -8 -4 -12 -9 -9 -5 3 -6 10 -3
15 9 13 12 11 12 -6z m-117 -25 c8 -5 11 -10 5 -10 -5 0 -17 5 -25 10 -8 5
-10 10 -5 10 6 0 17 -5 25 -10z m105 0 c3 -5 1 -10 -4 -10 -6 0 -11 5 -11 10
0 6 2 10 4 10 3 0 8 -4 11 -10z m145 0 c8 -5 11 -10 5 -10 -5 0 -17 5 -25 10
-8 5 -10 10 -5 10 6 0 17 -5 25 -10z"/>
<path d="M766 804 c-8 -21 -4 -25 14 -14 11 7 12 12 4 20 -8 8 -13 7 -18 -6z"/>
<path d="M545 600 c-19 -8 -19 -9 3 -9 12 -1 22 4 22 9 0 6 -1 10 -2 9 -2 0
-12 -4 -23 -9z"/>
<path d="M53 660 c4 -95 15 -99 15 -6 0 42 -4 76 -8 76 -5 0 -8 -31 -7 -70z"/>
<path d="M930 690 c0 -22 5 -40 10 -40 6 0 10 17 8 40 -1 22 -6 40 -10 40 -4
0 -8 -18 -8 -40z"/>
<path d="M933 622 c1 -14 5 -18 11 -12 7 7 6 14 -1 21 -9 9 -12 7 -10 -9z"/>
<path d="M930 511 c0 -11 5 -23 10 -26 6 -3 10 3 10 14 0 11 -4 23 -10 26 -5
3 -10 -3 -10 -14z"/>
<path d="M931 421 c-1 -27 2 -52 7 -55 5 -3 10 19 11 49 1 30 -2 55 -7 55 -5
0 -9 -22 -11 -49z"/>
<path d="M930 341 c0 -6 5 -13 10 -16 6 -3 10 1 10 9 0 9 -4 16 -10 16 -5 0
-10 -4 -10 -9z"/>
<path d="M930 278 c0 -20 5 -40 10 -43 13 -8 13 45 0 65 -7 11 -10 6 -10 -22z"/>
<path d="M0 116 c0 -2 7 -7 16 -10 8 -3 12 -2 9 4 -6 10 -25 14 -25 6z"/>
<path d="M987 93 c-4 -3 -7 -11 -7 -17 0 -6 5 -5 12 2 6 6 9 14 7 17 -3 3 -9
2 -12 -2z"/>
<path d="M495 80 c3 -5 8 -10 11 -10 2 0 4 5 4 10 0 6 -5 10 -11 10 -5 0 -7
-4 -4 -10z"/>
</g>
</svg>
