<?xml version="1.0" encoding="UTF-8"?>
<svg version="1.1" viewBox="0 0 2048 652" width="1280" height="1280" xmlns="http://www.w3.org/2000/svg">
<path transform="translate(0)" d="m0 0h2048v652h-2048z" fill="#FEFEFE00"/>
<path transform="translate(1279,277)" d="m0 0h134l18 5 19 9 2 5v2h56l4-1h77l1-1 75-1 1-1 68-1 1-1 108-2 1-1 47-1 5-1 65-2 20-1h23l20 15 11 7v2l-10-1h-64l-1 1-92 2-1 1-54 1-1 1-122 2-13 1-2 1-32-1v2h13l2 1 12 1 6 1 10 2 10 3 7 6 10 19 2 4-1 1h-26l-16-1-51-1-1-1-89-1-31-1h-249l-29 1-78 1-1 1-52 1-45 2-39 1-1 1-30 1-2 1-49 2-1 1-23 1-5 1-19 1-5 1h-16l-2 1-19 1-2 1-21 1-7 1h-10l-2 1-20 1-1 1-19 1-6 1-14 1-3 1-16 1-18 1-2 1-16 1-32 3-7 1-4-5-9-16-5-12 7 1 5 1 37-2 2-1 20-1 1-1 33-2 21-2 4-1 19-1 6-1h13l2-1h22v-2h-9l-2-1-23-1-5-1-15-2-11-3h-44l-1 1-57 1-1 1-196 1-23 1-4 1-22 1-3 1-35 2h-11l-1 1-23 1-2 1-25 1-5 1-21 1-22 1-4 1-25 1-1 1-23 1-1 2-3-1h-39l-11-12-7-11v-2l-35-1-2-1-30-1-33-2-6-4v-2l-4-2-10-7-14-9-4-3v-5l15 6 14 3 11 1 2 1 16 1 1 1 55 3 36 1 1 1 46 1 1 1 61 1 2 1 135-1 4-1h17l3-1 25-1 1-1 25-1 5-1 46-2 1-1 28-1 1-1 54-2 6-1 30-1 5-1h30v-2h37l1-1 40-1 1-1 42-1 1-1h43l3-2h44l2-1 47-1 1-1 50-1 19-1 84-2 9-1 62-1 14-1 101-2z" fill="#FF4E00"/>
<path transform="translate(1246,280)" d="m0 0h135l24 2 2 1 13 2 14 5 8 5 1 3-1 1-139 1-1 1-49 1-1 1-196 2-2 1-100 1-1 1-76 1-42 1h-21l-1 1-57 1-1 1h-47l-1-3h-5l-1-2 10-2 32-1 1-1 33-1 34-2 34-1 1-1 32-1 34-2 33-1 2-1 34-1 1-1 33-1 35-2 33-1 1-1 35-1 35-2 3-1h33l1-1h55z" fill="#FEFEFE00"/>
<path transform="translate(1220,324)" d="m0 0 261 1 91 1 21 1 51 1 1 1 42 1 5 1 7 1 6 9 2 5v3h-9l-14-3h-7l-6-2h-10l-2-1-12-1-3-1-18-1-4-1-17-1-21-1-4-1-26-1-4-1-36-1-65-1-1-1h-112l-24 1-142 2h-15l-2 1-67 1-1 1-64 1-25 1h-37l-2 1-74 1-1-3h24l1-1 20-1 5-1 26-1 2-1 64-2 7-1 47-1 1-1 56-1 19-1 65-1z" fill="#FEFEFE00"/>
<path transform="translate(158,332)" d="m0 0h16l6 3 8 9 6 8-24 1-5 1h-7l-7-7-8-10-2-4z" fill="#FEFEFE00"/>
<path transform="translate(631,309)" d="m0 0h23v2l-13 5h-24l-3-2v-3l2-1z" fill="#FEFEFE00"/>
<path transform="translate(582,305)" d="m0 0h10l9 3v1h-29l3-3z" fill="#FEFEFE00"/>
</svg>
