<?xml version="1.0" standalone="no"?>
<!DOCTYPE svg PUBLIC "-//W3C//DTD SVG 20010904//EN"
 "http://www.w3.org/TR/2001/REC-SVG-20010904/DTD/svg10.dtd">
<svg version="1.0" xmlns="http://www.w3.org/2000/svg"
 width="901.000000pt" height="227.000000pt" viewBox="0 0 901.000000 227.000000"
 preserveAspectRatio="xMidYMid meet">

<g transform="translate(0.000000,227.000000) scale(0.100000,-0.100000)"
fill="#FF4E00" stroke="none">
<path d="M3075 1639 c-142 -34 -201 -55 -563 -196 -134 -52 -245 -93 -248 -91
-4 5 115 95 164 123 26 16 32 26 32 53 0 46 -37 82 -85 82 -103 0 -328 -65
-537 -154 -96 -41 -356 -175 -413 -212 -14 -9 -25 -14 -25 -10 0 8 169 133
280 207 97 64 120 95 101 136 -30 65 -152 30 -537 -157 -430 -208 -834 -470
-1094 -709 l-55 -50 42 -1 c60 0 75 8 213 110 123 92 289 202 405 268 123 70
235 132 240 132 2 0 -54 -57 -125 -127 -127 -127 -203 -226 -215 -284 -12 -53
74 -189 129 -203 41 -10 66 7 181 120 139 138 373 317 553 424 75 44 102 47
64 7 -28 -30 -28 -51 4 -113 28 -56 66 -84 112 -84 17 0 96 33 183 76 256 127
696 314 739 314 6 0 0 -14 -14 -31 -32 -38 -32 -47 -2 -112 49 -107 92 -117
226 -51 133 65 290 134 305 134 7 0 18 -21 24 -46 17 -68 57 -104 115 -104 25
0 67 8 93 19 27 10 73 28 103 40 35 14 48 16 35 6 -57 -43 -67 -58 -62 -96 6
-47 54 -128 81 -139 15 -5 68 3 162 25 1092 261 2398 385 3634 346 561 -18
653 -26 1173 -97 180 -25 333 -44 339 -42 14 5 -134 69 -252 109 -269 90 -721
168 -1245 215 -246 22 -1014 30 -1341 15 -606 -29 -1126 -81 -1665 -167 -119
-19 -222 -34 -229 -34 -8 0 17 22 56 49 38 27 82 62 97 79 56 58 41 154 -29
187 -34 16 -45 16 -103 6 -36 -7 -120 -30 -187 -52 -66 -21 -125 -39 -130 -39
-5 0 -16 15 -24 32 -39 83 -125 97 -275 45 -55 -19 -108 -38 -117 -42 -14 -6
-18 -2 -18 18 0 14 -12 39 -26 56 -25 30 -28 31 -107 30 -45 0 -118 -9 -162
-20z"/>
</g>
</svg>
