<?xml version="1.0" standalone="no"?>
<!DOCTYPE svg PUBLIC "-//W3C//DTD SVG 20010904//EN"
 "http://www.w3.org/TR/2001/REC-SVG-20010904/DTD/svg10.dtd">
<svg version="1.0" xmlns="http://www.w3.org/2000/svg"
 width="735.000000pt" height="209.000000pt" viewBox="0 0 735.000000 209.000000"
 preserveAspectRatio="xMidYMid meet">

<g transform="translate(0.000000,209.000000) scale(0.100000,-0.100000)"
fill="#FF4E00" stroke="none">
<path d="M3060 1369 c-497 -18 -1023 -55 -1470 -105 -338 -37 -696 -87 -706
-97 -2 -2 6 -22 17 -44 37 -75 91 -84 342 -58 335 34 848 70 1272 90 337 15
917 28 900 20 -5 -2 -183 -20 -395 -40 -384 -35 -698 -68 -1010 -106 -346 -42
-1787 -271 -1821 -290 -37 -19 -18 -125 26 -149 20 -11 51 -9 187 9 789 105
1834 183 2748 205 234 6 228 3 -125 -50 -445 -66 -721 -121 -737 -147 -4 -7
-8 -27 -8 -44 0 -27 5 -34 26 -39 15 -4 126 1 248 10 1240 93 2338 83 3226
-29 296 -38 484 -73 592 -112 124 -44 142 -42 146 14 4 56 -18 69 -131 77 -48
3 -194 22 -325 41 -690 100 -1577 155 -2292 142 -276 -5 -281 -4 -160 8 216
23 441 35 888 47 747 21 1749 -18 2422 -94 102 -11 203 -23 225 -25 62 -7 76
10 83 95 4 68 4 71 -19 76 -25 6 -468 45 -794 71 -383 30 -974 68 -1385 90
-596 31 -824 38 -1445 44 l-640 6 195 17 c1043 94 1807 107 3262 56 384 -13
378 -14 378 48 0 45 -8 48 -215 78 -1051 154 -2390 224 -3505 185z"/>
</g>
</svg>
