<?xml version="1.0" encoding="UTF-8"?>
<svg version="1.1" viewBox="0 0 2048 480" width="1280" height="1280" xmlns="http://www.w3.org/2000/svg">
<path transform="translate(0)" d="m0 0h2048v480h-2048z" fill="#FEFEFE00"/>
<path transform="translate(287,117)" d="m0 0 15 1 10 4 5 4 6 10 1 3v17l-4 9-7 9-11 7-8 3h-12l-6-4-4-6-1-3v-7l5-1 5 10 7 3 10-3 8-6 6-8 3-6v-12l-5-8-10-5h-18l-13 4-14 9-8 9-5 10-1 3v17l5 13 8 13 6 7v2l4 2 7 5 6 2 25-1 41-1 90 1h460l77-1 51 1 19 1 14-1 50-1 76 1h460l76-1h25l31 1 23 1 10-4 8-6 10-14 7-14 3-12-1-10-4-11-7-9-7-6-8-5-11-4-5-1h-17l-10 5-4 6-1 3v10l6 12 9 8 6 3h10l5-5 3-7 5 1v7l-4 8-5 4-2 1h-12l-10-4-6-4-6-5-5-7-3-8-1-11 2-9 6-10 9-6 6-2 12-1 16 2 14 5 12 7 9 8 6 10 4 11v19l-4 15-7 13-8 10-8 8-6 4-1 2 5 1 12 7 8 7 7 10 5 13 1 5v16l-3 14-6 12-9 10-10 6-8 3h-19l-12-5-8-6-8-10-6-14-2-10v-10l4-11 8-6 8-2h10l10 3 9 8 4 9v8l-4 5-7 3h-9l-2-2 1-5 10-4 1-5-4-6-6-3h-10l-8 4-2 4v16l5 12 5 6v2l4 2 9 5 8 2h7l11-4 9-8 7-14 2-9v-20l-5-12-11-12-13-8-11-4-25 1-26 1-486-1h-53l-61 1h-70l-27-1h-24l-28 1h-73l-57-1h-426l-71 1h-29l-39-1-27-1-16 7-10 8-8 9-4 8-2 10v8l3 14 4 10 7 9 9 6 8 2h7l11-4 9-6 6-9 4-10 1-12-3-8-4-3-3-1h-11l-6 3-4 6 1 5 7 3 4 2-1 5-1 1h-8l-8-3-4-6v-7l5-10 8-7 10-3h10l10 3 5 4 4 7 1 4v12l-3 12-7 14-9 10-11 6-6 2h-19l-12-5-9-7-7-9-5-10-3-15v-13l2-10 5-12 9-10 9-8 12-6-4-4-8-7-8-9-8-14-5-16v-20l4-11 5-8 6-7 14-9 12-5 8-2z" fill="#FF4E00"/>
<path transform="translate(184,195)" d="m0 0 5 1 14 9 14 10 16 10 2 4-11 12-9 11-10 10-2 3h-2v2l-5-1-14-7-21-14-14-11-2-4 22-22 14-11z" fill="#FF4E00"/>
<path transform="translate(1887,195)" d="m0 0 5 2 10 8 12 11 13 13 1 3-9 8-17 12-15 9-12 6-4-2-13-13-7-8-9-10-4-5v-3l18-11 20-14 8-5z" fill="#FF4E00"/>
<path transform="translate(185,206)" d="m0 0 5 2 17 13 12 9-2 4-18 20-5-2-23-15-11-7v-3l12-11z" fill="#FEFEFE00"/>
<path transform="translate(1886,206)" d="m0 0 4 2 9 7 10 9 5 5-10 7-18 11-10 7-4-2-9-10-8-8-1-4 13-10z" fill="#FEFEFE00"/>
<path transform="translate(1945,229)" d="m0 0h24l15 2v5l-18 2h-18l-8-2v-5z" fill="#FF4E00"/>
<path transform="translate(105,229)" d="m0 0h22l6 2-1 5-6 2h-18l-19-2v-5z" fill="#FF4E00"/>
<path transform="translate(153,271)" d="m0 0 4 2-1 6-11 12-10 9-5 2-2-4 10-13 8-9z" fill="#FF4E00"/>
<path transform="translate(1918,271)" d="m0 0 5 2 5 4 7 8 8 10 2 5-4 2-14-12-7-7-4-6 1-5z" fill="#FF4E00"/>
<path transform="translate(1944,169)" d="m0 0h4l2 5-20 20-5 2-2-2 1-6 6-8z" fill="#FF4E00"/>
<path transform="translate(126,169)" d="m0 0 5 1 13 12 6 7 1 4-3 3-5-2-20-20 2-4z" fill="#FF4E00"/>
<path transform="translate(1883,274)" d="m0 0 4 1 1 1 1 8-1 21-1 1h-5l-1-1-1-21 1-8z" fill="#FF4E00"/>
<path transform="translate(187,274)" d="m0 0h4l1 2v28l-1 2h-5l-1-1v-28z" fill="#FF4E00"/>
<path transform="translate(185,138)" d="m0 0 4 1 1 8v14l-2 5-5-1-1-3v-14l1-9z" fill="#FF4E00"/>
<path transform="translate(1886,138)" d="m0 0 4 2 1 9v13l-2 4h-5l-1-4v-15l1-7z" fill="#FF4E00"/>
</svg>
