<?xml version="1.0" standalone="no"?>
<!DOCTYPE svg PUBLIC "-//W3C//DTD SVG 20010904//EN"
 "http://www.w3.org/TR/2001/REC-SVG-20010904/DTD/svg10.dtd">
<svg version="1.0" xmlns="http://www.w3.org/2000/svg"
 width="735.000000pt" height="209.000000pt" viewBox="0 0 735.000000 209.000000"
 preserveAspectRatio="xMidYMid meet">

<g transform="translate(0.000000,209.000000) scale(0.100000,-0.100000)"
fill="#000000" stroke="none">
<path d="M3180 1373 c-458 -14 -893 -40 -1300 -79 -405 -38 -981 -112 -997
-127 -2 -3 5 -23 16 -45 38 -74 96 -83 351 -57 231 23 771 63 1070 80 399 22
1100 42 1089 31 -2 -3 -135 -16 -294 -30 -894 -81 -1248 -127 -2549 -336 -355
-57 -382 -64 -396 -90 -12 -23 0 -82 25 -118 20 -27 37 -28 225 -2 537 71
1307 139 1985 175 330 17 926 37 932 31 2 -2 -18 -7 -44 -10 -445 -63 -947
-152 -993 -176 -17 -9 -21 -19 -18 -53 l3 -42 100 1 c55 0 201 8 325 17 1204
90 2412 65 3280 -69 217 -34 279 -47 388 -84 116 -40 136 -38 140 15 1 22 -2
46 -7 54 -6 9 -52 18 -137 26 -71 8 -239 30 -374 49 -623 90 -1548 146 -2220
133 -157 -3 -280 -4 -275 -2 6 2 100 11 210 19 825 64 1829 57 2810 -19 170
-14 275 -24 615 -62 71 -7 85 9 85 99 l0 73 -240 22 c-1196 109 -2347 171
-3370 181 -741 7 -739 5 -80 56 801 62 1573 69 2847 25 189 -7 356 -9 371 -5
24 6 27 11 27 46 0 47 -9 53 -100 69 -415 70 -1165 145 -1800 181 -464 25
-1267 37 -1700 23z"/>
</g>
</svg>
